<svg xmlns="http://www.w3.org/2000/svg" xmlns:xlink="http://www.w3.org/1999/xlink" fill="none" version="1.1" width="208" height="909" viewBox="0 0 208 909"><g><g><rect x="104" y="202" width="104" height="101" rx="0" fill="#AC7200" fill-opacity="1"/></g><g><rect x="104" y="101" width="104" height="101" rx="0" fill="#F7F1E5" fill-opacity="1"/></g><g><rect x="104" y="303" width="104" height="101" rx="0" fill="#634100" fill-opacity="1"/></g><g><rect x="0" y="303" width="104" height="101" rx="0" fill="#B5A381" fill-opacity="1"/></g><g><rect x="0" y="404" width="104" height="101" rx="0" fill="#875A00" fill-opacity="1"/></g><g><rect x="104" y="0" width="104" height="101" rx="0" fill="#B5A381" fill-opacity="1"/></g><g><rect x="104" y="606" width="104" height="101" rx="0" fill="#AC7200" fill-opacity="1"/></g><g><rect x="104" y="505" width="104" height="101" rx="0" fill="#F7F1E5" fill-opacity="1"/></g><g><rect x="104" y="707" width="104" height="101" rx="0" fill="#634100" fill-opacity="1"/></g><g><rect x="104" y="404" width="104" height="101" rx="0" fill="#B5A381" fill-opacity="1"/></g><g><rect x="0" y="808" width="104" height="101" rx="0" fill="#875A00" fill-opacity="1"/></g><g><rect x="0" y="606" width="104" height="101" rx="0" fill="#B5A381" fill-opacity="1"/></g></g></svg>