<svg id="visual" viewBox="0 0 2000 1200" width="2000" height="1200" xmlns="http://www.w3.org/2000/svg" xmlns:xlink="http://www.w3.org/1999/xlink" version="1.1"><path d="M0 901L41.7 910.7C83.3 920.3 166.7 939.7 250 943.2C333.3 946.7 416.7 934.3 500 935.8C583.3 937.3 666.7 952.7 750 955.5C833.3 958.3 916.7 948.7 1000 946.3C1083.3 944 1166.7 949 1250 940.5C1333.3 932 1416.7 910 1500 914.3C1583.3 918.7 1666.7 949.3 1750 968.5C1833.3 987.7 1916.7 995.3 1958.3 999.2L2000 1003L2000 1201L1958.3 1201C1916.7 1201 1833.3 1201 1750 1201C1666.7 1201 1583.3 1201 1500 1201C1416.7 1201 1333.3 1201 1250 1201C1166.7 1201 1083.3 1201 1000 1201C916.7 1201 833.3 1201 750 1201C666.7 1201 583.3 1201 500 1201C416.7 1201 333.3 1201 250 1201C166.7 1201 83.3 1201 41.7 1201L0 1201Z" fill="#634100"></path><path d="M0 996L41.7 1005.2C83.3 1014.3 166.7 1032.7 250 1039.7C333.3 1046.7 416.7 1042.3 500 1040.5C583.3 1038.7 666.7 1039.3 750 1025.8C833.3 1012.3 916.7 984.7 1000 988.2C1083.3 991.7 1166.7 1026.3 1250 1033C1333.3 1039.7 1416.7 1018.3 1500 1008.2C1583.3 998 1666.7 999 1750 1002.7C1833.3 1006.3 1916.7 1012.7 1958.3 1015.8L2000 1019L2000 1201L1958.3 1201C1916.7 1201 1833.3 1201 1750 1201C1666.7 1201 1583.3 1201 1500 1201C1416.7 1201 1333.3 1201 1250 1201C1166.7 1201 1083.3 1201 1000 1201C916.7 1201 833.3 1201 750 1201C666.7 1201 583.3 1201 500 1201C416.7 1201 333.3 1201 250 1201C166.7 1201 83.3 1201 41.7 1201L0 1201Z" fill="#886a38"></path><path d="M0 1065L41.7 1067.3C83.3 1069.7 166.7 1074.3 250 1078.3C333.3 1082.3 416.7 1085.7 500 1087.3C583.3 1089 666.7 1089 750 1077.7C833.3 1066.3 916.7 1043.7 1000 1033.8C1083.3 1024 1166.7 1027 1250 1040C1333.3 1053 1416.7 1076 1500 1072C1583.3 1068 1666.7 1037 1750 1030.7C1833.3 1024.3 1916.7 1042.7 1958.3 1051.8L2000 1061L2000 1201L1958.3 1201C1916.7 1201 1833.3 1201 1750 1201C1666.7 1201 1583.3 1201 1500 1201C1416.7 1201 1333.3 1201 1250 1201C1166.7 1201 1083.3 1201 1000 1201C916.7 1201 833.3 1201 750 1201C666.7 1201 583.3 1201 500 1201C416.7 1201 333.3 1201 250 1201C166.7 1201 83.3 1201 41.7 1201L0 1201Z" fill="#ac956e"></path><path d="M0 1076L41.7 1078.3C83.3 1080.7 166.7 1085.3 250 1082.7C333.3 1080 416.7 1070 500 1077.2C583.3 1084.3 666.7 1108.7 750 1118.5C833.3 1128.3 916.7 1123.7 1000 1116.2C1083.3 1108.7 1166.7 1098.3 1250 1090.7C1333.3 1083 1416.7 1078 1500 1083.8C1583.3 1089.7 1666.7 1106.3 1750 1108.8C1833.3 1111.3 1916.7 1099.7 1958.3 1093.8L2000 1088L2000 1201L1958.3 1201C1916.7 1201 1833.3 1201 1750 1201C1666.7 1201 1583.3 1201 1500 1201C1416.7 1201 1333.3 1201 1250 1201C1166.7 1201 1083.3 1201 1000 1201C916.7 1201 833.3 1201 750 1201C666.7 1201 583.3 1201 500 1201C416.7 1201 333.3 1201 250 1201C166.7 1201 83.3 1201 41.7 1201L0 1201Z" fill="#d1c2a8"></path><path d="M0 1115L41.7 1114.7C83.3 1114.3 166.7 1113.7 250 1113.5C333.3 1113.3 416.7 1113.7 500 1122.5C583.3 1131.3 666.7 1148.7 750 1156.7C833.3 1164.7 916.7 1163.3 1000 1161.8C1083.3 1160.3 1166.7 1158.7 1250 1160.3C1333.3 1162 1416.7 1167 1500 1161.2C1583.3 1155.3 1666.7 1138.7 1750 1128C1833.3 1117.3 1916.7 1112.7 1958.3 1110.3L2000 1108L2000 1201L1958.3 1201C1916.7 1201 1833.3 1201 1750 1201C1666.7 1201 1583.3 1201 1500 1201C1416.7 1201 1333.3 1201 1250 1201C1166.7 1201 1083.3 1201 1000 1201C916.7 1201 833.3 1201 750 1201C666.7 1201 583.3 1201 500 1201C416.7 1201 333.3 1201 250 1201C166.7 1201 83.3 1201 41.7 1201L0 1201Z" fill="#f7f1e5"></path></svg>